<svg width="24" height="25" viewBox="0 0 24 25" fill="none" xmlns="http://www.w3.org/2000/svg">
<path d="M20.4031 1.7002H3.60313C2.28313 1.7002 1.20312 2.7802 1.20312 4.1002V20.9002C1.20312 22.2214 2.28313 23.3002 3.60313 23.3002H12.0031V14.9002H9.60313V11.9302H12.0031V9.4702C12.0031 6.8734 13.4575 5.0494 16.5223 5.0494L18.6859 5.0518V8.1778H17.2495C16.0567 8.1778 15.6031 9.073 15.6031 9.9034V11.9314H18.6847L18.0031 14.9002H15.6031V23.3002H20.4031C21.7231 23.3002 22.8031 22.2214 22.8031 20.9002V4.1002C22.8031 2.7802 21.7231 1.7002 20.4031 1.7002Z" fill="white" fill-opacity="0.5"/>
</svg>
