<svg width="24" height="25" viewBox="0 0 24 25" fill="none" xmlns="http://www.w3.org/2000/svg">
<path fill-rule="evenodd" clip-rule="evenodd" d="M22.425 8.165C22.5 9.62 22.5 11.045 22.5 12.5C22.5 12.6821 22.5002 12.8639 22.5005 13.0455C22.5021 14.3154 22.5037 15.5752 22.425 16.835C22.35 18.515 21.96 20 20.73 21.23C19.515 22.46 18.015 22.85 16.335 22.925C14.88 23 13.455 23 12 23C10.545 23 9.12 23 7.665 22.925C5.985 22.85 4.5 22.46 3.27 21.23C2.04 20.015 1.65 18.515 1.575 16.835C1.5 15.38 1.5 13.955 1.5 12.5C1.5 11.045 1.5 9.62 1.575 8.165C1.65 6.485 2.04 5 3.27 3.77C4.485 2.54 5.985 2.15 7.665 2.075C9.12 2 10.545 2 12 2C13.455 2 14.88 2 16.335 2.075C18.015 2.15 19.5 2.54 20.73 3.77C21.96 4.985 22.35 6.485 22.425 8.165ZM14.3925 12.5L10.5 14.8571V10.1429L14.3925 12.5ZM19.38 10.1979C19.335 9.56929 19.2675 9.07429 19.17 8.705C18.9825 7.99786 18.5475 7.54214 17.8725 7.34571C17.1 7.12571 15.1425 7 12 7L10.8075 7.04714C9.9825 7.04714 9.09 7.07071 8.115 7.12571C7.125 7.17286 6.48 7.24357 6.1275 7.34571C5.4525 7.54214 5.0175 7.99786 4.83 8.705C4.62 9.51429 4.5 10.7793 4.5 12.5L4.545 13.16C4.545 13.6314 4.5675 14.1736 4.62 14.8021C4.665 15.4307 4.7325 15.9257 4.83 16.295C5.0175 17.0021 5.4525 17.4579 6.1275 17.6543C6.9 17.8743 8.8575 18 12 18L13.1925 17.9529C14.0175 17.9529 14.91 17.9293 15.885 17.8743C16.875 17.8271 17.52 17.7564 17.8725 17.6543C18.5475 17.4579 18.9825 17.0021 19.17 16.295C19.38 15.4857 19.5 14.2207 19.5 12.5L19.455 11.84C19.455 11.3686 19.4325 10.8264 19.38 10.1979Z" fill="white" fill-opacity="0.5"/>
</svg>
