<svg width="180" height="27" viewBox="0 0 180 27" fill="none" xmlns="http://www.w3.org/2000/svg">
<path d="M3.82979 27C1.2766 27 0 25.7143 0 23.1429V0H3.82979V23.1429H9.57447V0H13.4043V23.1429H19.1489V0H22.9787V23.1429C22.9787 25.7143 21.7021 27 19.1489 27H3.82979Z" fill="#FFA53C"/>
<path d="M30.6383 19.2857V27H26.8085V3.85714C26.8085 1.28571 28.0851 0 30.6383 0H38.2979C40.8511 0 42.1277 1.28571 42.1277 3.85714V27H38.2979V19.2857H30.6383ZM30.6383 15.4286H38.2979V3.85714H30.6383V15.4286Z" fill="#FFA53C"/>
<path d="M49.7872 27H45.9574V0H57.4468C60 0 61.2766 1.28571 61.2766 3.85714V11.5714C61.2766 14.1429 60 15.4286 57.4468 15.4286H55.8311L61.2766 27H57.0279L51.5974 15.4286H49.7872V27ZM49.7872 3.85714V11.5714H57.4468V3.85714H49.7872Z" fill="#FFA53C"/>
<path d="M80.4255 27H76.5957V3.85714H68.9362V27H65.1064V0H76.5957C79.1489 0 80.4255 1.28571 80.4255 3.85714V27Z" fill="#FFA53C"/>
<path d="M97.6596 27H93.8298V19.4062L88.0851 5.45424V27H84.2553V0H90L95.7447 13.9821L101.489 0H107.234V27H103.404V5.45424L97.6596 19.4062V27Z" fill="#FFA53C"/>
<path d="M122.553 11.5714V15.4286H114.894V23.1429H122.553V19.2857H126.383V27H111.064V0H126.383V7.71429H122.553V3.85714H114.894V11.5714H122.553Z" fill="#FFA53C"/>
<path d="M130.213 27V0H141.702C144.255 0 145.532 1.28571 145.532 3.85714V23.1429C145.532 25.7143 144.255 27 141.702 27H130.213ZM134.043 23.1429H141.702V3.85714H134.043V23.1429Z" fill="#FFA53C"/>
<path d="M157.021 23.1429H160.851V27H149.362V23.1429H153.191V3.85714H149.362V0H160.851V3.85714H157.021V23.1429Z" fill="#FFA53C"/>
<path d="M168.511 19.2857V27H164.681V3.85714C164.681 1.28571 165.957 0 168.511 0H176.17C178.723 0 180 1.28571 180 3.85714V27H176.17V19.2857H168.511ZM168.511 15.4286H176.17V3.85714H168.511V15.4286Z" fill="#FFA53C"/>
</svg>
